<?xml version="1.0" encoding="UTF-8" standalone="no"?>
<!DOCTYPE svg PUBLIC "-//W3C//DTD SVG 1.1//EN" "http://www.w3.org/Graphics/SVG/1.1/DTD/svg11.dtd">
<svg width="100%" height="100%" viewBox="0 0 525 134" version="1.1" xmlns="http://www.w3.org/2000/svg" xmlns:xlink="http://www.w3.org/1999/xlink" xml:space="preserve" xmlns:serif="http://www.serif.com/" style="fill-rule:evenodd;clip-rule:evenodd;stroke-linecap:round;stroke-linejoin:round;stroke-miterlimit:1.5;">
    <g transform="matrix(4.16667,0,0,4.16667,0,0)">
        <path d="M14.521,18.06L16.97,32.005L1.773,32.005C0.799,32.003 -0.001,31.201 0,30.227L0,20.627L14.521,18.06Z" style="fill:rgb(59,88,227);fill-rule:nonzero;"/>
        <path d="M30.145,0C31.119,0.002 31.919,0.804 31.918,1.778L31.918,30.227C31.919,31.201 31.119,32.003 30.145,32.005L20.573,32.005L14.945,0L30.145,0Z" style="fill:rgb(0,146,255);fill-rule:nonzero;"/>
        <path d="M11.343,0L13.9,14.559L0,17.016L0,1.778C-0.001,0.804 0.799,0.002 1.773,0L11.343,0Z" style="fill:rgb(240,72,62);fill-rule:nonzero;"/>
        <path d="M62.42,26.451L58.283,26.451L49.011,12.33L49.011,26.451L44.875,26.451L44.875,5.68L49.012,5.68L58.284,19.92L58.284,5.68L62.42,5.68L62.42,26.451Z" style="fill:rgb(129,146,153);fill-rule:nonzero;"/>
        <path d="M81.726,10.152L81.726,26.452L77.588,26.452L77.588,23.152C77.183,24.221 76.435,25.126 75.463,25.727C74.435,26.356 73.249,26.678 72.044,26.654C70.348,26.73 68.703,26.05 67.555,24.8C66.365,23.347 65.767,21.496 65.882,19.621L65.882,10.152L69.99,10.152L69.99,19.152C69.922,20.248 70.281,21.329 70.99,22.168C71.692,22.899 72.678,23.291 73.69,23.242C74.758,23.293 75.797,22.875 76.533,22.1C77.292,21.175 77.669,19.994 77.588,18.8L77.588,10.152L81.726,10.152Z" style="fill:rgb(129,146,153);fill-rule:nonzero;"/>
        <path d="M98.889,10.946C100.009,11.641 100.902,12.65 101.456,13.846C102.1,15.242 102.416,16.766 102.38,18.303C102.416,19.84 102.1,21.365 101.456,22.761C100.902,23.958 100.01,24.966 98.889,25.661C97.774,26.334 96.491,26.681 95.189,26.661C93.947,26.698 92.723,26.354 91.681,25.676C90.73,25.04 90.005,24.117 89.613,23.042L89.613,26.455L85.48,26.455L85.48,4.68L89.618,4.68L89.618,13.535C90.009,12.463 90.734,11.545 91.686,10.917C92.731,10.248 93.954,9.909 95.194,9.946C96.495,9.929 97.775,10.275 98.889,10.946ZM90.806,14.846C89.961,15.791 89.523,17.034 89.589,18.3C89.526,19.559 89.964,20.792 90.807,21.729C92.513,23.414 95.291,23.427 97.013,21.758C97.838,20.802 98.259,19.561 98.185,18.3C98.256,17.035 97.836,15.791 97.013,14.828C96.208,13.976 95.071,13.515 93.9,13.565C92.734,13.53 91.607,13.997 90.807,14.845L90.806,14.846Z" style="fill:rgb(129,146,153);fill-rule:nonzero;"/>
        <path d="M105.551,3.841C106.636,2.999 108.166,2.999 109.251,3.841C109.715,4.254 109.972,4.853 109.951,5.474C109.967,6.084 109.71,6.671 109.251,7.074C108.166,7.916 106.636,7.916 105.551,7.074C105.092,6.671 104.835,6.084 104.851,5.474C104.83,4.853 105.087,4.254 105.551,3.841ZM109.451,10.152L109.451,26.452L105.313,26.452L105.313,10.152L109.451,10.152Z" style="fill:rgb(129,146,153);fill-rule:nonzero;"/>
        <path d="M123.564,11.446C124.768,12.464 125.561,13.887 125.794,15.446L121.921,15.446C121.795,14.716 121.423,14.051 120.866,13.563C120.263,13.073 119.5,12.822 118.724,12.857C118.134,12.82 117.549,12.998 117.079,13.357C116.687,13.694 116.47,14.193 116.494,14.71C116.478,15.124 116.65,15.525 116.962,15.798C117.306,16.091 117.706,16.311 118.137,16.446C118.604,16.603 119.279,16.789 120.162,17.005C121.184,17.219 122.189,17.509 123.168,17.873C123.945,18.179 124.632,18.674 125.168,19.314C125.757,20.073 126.052,21.019 126,21.978C126.033,23.301 125.427,24.562 124.372,25.362C123.101,26.282 121.553,26.739 119.986,26.656C118.184,26.747 116.401,26.245 114.91,25.229C113.617,24.241 112.78,22.77 112.591,21.154L116.552,21.154C116.621,21.908 117.005,22.599 117.61,23.054C118.303,23.543 119.139,23.786 119.986,23.746C120.57,23.786 121.147,23.602 121.6,23.231C121.971,22.887 122.174,22.398 122.156,21.893C122.172,21.458 121.995,21.038 121.674,20.745C121.326,20.438 120.917,20.207 120.474,20.069C119.994,19.912 119.314,19.726 118.435,19.51C117.434,19.297 116.449,19.017 115.486,18.672C114.734,18.389 114.068,17.918 113.55,17.304C112.975,16.568 112.688,15.647 112.743,14.715C112.708,13.378 113.307,12.101 114.357,11.273C115.642,10.324 117.22,9.856 118.815,9.949C120.526,9.864 122.211,10.395 123.564,11.446Z" style="fill:rgb(129,146,153);fill-rule:nonzero;"/>
        <path d="M5.351,7.363C5.19,7.061 5.159,8.116 5.151,8.237C5.104,9.046 5.097,9.851 5.071,10.661C5.005,12.745 5.012,14.829 5.191,16.908C5.219,17.227 5.165,18.497 5.591,18.657C5.835,18.749 6.074,18.241 6.151,18.108C6.561,17.396 6.89,16.654 7.23,15.909C8.286,13.601 8.955,11.168 10.469,9.087C10.82,8.605 11.577,7.576 12.308,7.713C13.072,7.856 12.969,9.2 12.948,9.737C12.864,11.834 12.292,13.921 11.948,15.984C11.905,16.243 11.434,18.61 12.108,18.557C12.894,18.496 13.794,16.545 14.147,16.009C15.826,13.46 17.331,10.801 19.065,8.287C19.692,7.378 20.348,6.473 21.104,5.664C21.15,5.614 21.647,5.001 21.783,5.314C22.053,5.932 21.37,7.497 21.224,8.087C20.552,10.792 19.853,13.482 19.544,16.258C19.448,17.13 19.073,19.981 20.335,20.375C21.49,20.736 22.832,19.117 23.542,18.457C26.166,16.023 28.475,13.313 30.499,10.361C31.186,9.359 31.903,8.374 32.538,7.338C32.845,6.836 32.82,6.861 33.138,6.363C33.29,6.125 33.617,5.381 33.617,5.664C33.617,6.737 32.726,8.361 32.418,9.387C31.622,12.042 30.718,14.709 30.299,17.458C30.205,18.075 29.792,21.312 31.339,20.506C32.559,19.871 33.514,18.485 34.377,17.458C36.575,14.844 38.362,11.939 40.374,9.187C41.043,8.273 41.757,7.383 42.453,6.488C42.472,6.463 43.143,5.52 43.253,5.589C43.624,5.821 42.954,6.414 42.773,6.813C42.438,7.552 42.081,8.279 41.734,9.012C40.236,12.175 38.625,15.273 37.456,18.582C37.059,19.705 36.609,20.909 36.496,22.106C36.477,22.305 36.415,22.98 36.816,22.88C37.724,22.653 38.573,20.875 39.055,20.207C41.014,17.486 42.894,14.702 44.892,12.011C45.7,10.922 46.528,9.831 47.451,8.837C47.674,8.597 48.089,7.908 48.21,8.212C48.47,8.862 47.599,10.36 47.371,10.911C46.301,13.496 45.095,16.07 44.372,18.782C44.183,19.493 43.359,22.275 44.452,22.73C45.565,23.194 47.067,21.12 47.611,20.506C50.03,17.774 52.233,14.782 54.847,12.235C55.536,11.564 56.21,10.883 57.006,10.336C57.119,10.259 57.828,9.712 58.006,9.962C58.352,10.449 57.474,12.053 57.286,12.46C55.989,15.272 54.489,18.073 53.608,21.056C53.377,21.838 52.51,24.458 53.608,25.029C54.115,25.293 54.787,24.804 55.167,24.529C56.095,23.86 56.902,23.06 57.686,22.231C60.286,19.476 62.606,16.468 65.362,13.86C66.101,13.16 67.891,11.203 69.08,11.286C69.79,11.335 69.059,13.345 68.96,13.635C68.159,15.987 67.007,18.238 66.681,20.731C66.571,21.576 66.514,23.54 67.921,23.18C69.393,22.804 70.704,21.144 71.719,20.132C74.43,17.429 76.943,14.473 79.835,11.961C80.87,11.061 81.96,10.193 83.153,9.512C83.316,9.419 84.053,8.893 84.273,9.112C84.426,9.265 84.195,9.74 84.153,9.862C83.876,10.653 83.486,11.411 83.113,12.16C81.756,14.894 80.101,17.67 79.515,20.706C79.349,21.564 79.126,23.775 80.516,23.862C82.149,23.964 83.901,22.058 84.992,21.106C88.634,17.929 91.812,14.288 95.307,10.961C96.484,9.841 97.73,8.812 99.065,7.888C99.396,7.659 100.306,6.863 100.785,7.013C101.067,7.101 100.704,7.871 100.665,7.963C100.328,8.756 99.91,9.527 99.505,10.286C98.173,12.785 96.649,15.301 96.067,18.108C95.868,19.068 95.585,20.878 96.558,21.572C97.547,22.279 99.05,20.852 99.705,20.282C102.511,17.837 104.795,14.882 107.341,12.185C108.257,11.215 109.216,10.265 110.22,9.387C110.239,9.37 111.223,8.495 111.259,8.587C111.333,8.77 110.815,9.455 110.74,9.562C110.196,10.332 109.636,11.089 109.06,11.836C107.406,13.984 105.766,16.158 104.583,18.607C104.265,19.266 103.33,20.96 103.823,21.731C104.064,22.108 104.518,21.839 104.783,21.656C105.563,21.117 106.201,20.403 106.862,19.732C109.359,17.196 111.529,14.344 114.098,11.886C114.742,11.269 115.403,10.671 116.137,10.161C116.209,10.112 116.662,9.764 116.817,9.837C116.959,9.903 116.349,10.841 116.337,10.861C115.835,11.667 115.264,12.448 114.698,13.21C113.015,15.475 111.093,17.642 109.74,20.132C109.418,20.724 108.346,22.412 108.981,23.105C109.676,23.865 111.343,22.238 111.779,21.856C113.651,20.218 115.471,18.51 117.496,17.058C118.298,16.484 119.361,15.617 120.375,15.459C121.184,15.332 120.414,16.756 120.295,17.008C119.757,18.152 118.998,19.206 118.416,20.331C118.276,20.602 117.662,21.463 117.936,21.806C118.143,22.065 118.89,21.043 118.976,20.931C119.685,20.008 120.464,19.048 120.655,17.858" style="fill:none;stroke:rgb(249,50,50);stroke-width:8.5px;"/>
        <path d="M8.59,3.19C9.309,4.314 9.441,6.288 9.629,7.563C10.196,11.397 10.135,15.322 9.269,19.107C8.924,20.62 8.5,22.222 7.67,23.555C7.568,23.719 6.923,24.704 6.631,24.429C6.412,24.225 6.586,23.669 6.631,23.43C6.816,22.444 7.488,20.772 8.71,20.881C9.346,20.938 9.909,21.315 10.429,21.656C12.216,22.829 16.238,26.954 16.906,22.78C17.002,22.179 17.009,21.562 17.106,20.956" style="fill:none;stroke:black;stroke-width:4.1px;"/>
        <path d="M17.066,12.41C16.896,12.304 16.906,13.328 16.906,13.485C16.906,14.509 16.879,15.536 16.946,16.558C17.124,19.285 17.333,23.88 21.064,23.88C24.813,23.88 26.677,18.536 26.781,15.559C26.82,14.44 26.712,13.282 26.501,12.185C26.482,12.086 26.336,10.918 26.061,11.261" style="fill:none;stroke:black;stroke-width:4.1px;"/>
        <path d="M33.657,9.512C33.128,8.189 31.41,10.463 31.099,10.936C30.994,11.096 30.626,11.698 30.539,11.861C29.165,14.438 28.336,18.255 29.38,21.081C30.405,23.858 33.669,23.847 36.016,22.93C37.239,22.452 38.215,21.96 38.215,20.556" style="fill:none;stroke:black;stroke-width:4.1px;"/>
        <path d="M44.052,9.462C44.052,7.858 42.037,10.117 41.853,10.461C40.485,13.028 39.571,16.26 39.774,19.182C39.846,20.215 40.002,21.548 40.974,22.156C42.22,22.934 43.621,21.994 44.332,20.956C45.84,18.757 46.759,15.939 47.091,13.31C47.203,12.421 47.26,11.502 47.171,10.611C47.164,10.543 47.106,9.887 47.011,9.887C46.952,9.887 46.971,10.674 46.971,10.711C46.971,11.563 47.003,12.444 47.131,13.285C47.443,15.332 47.605,18.064 49.05,19.707C50.326,21.157 53.208,19.551 53.208,17.808" style="fill:none;stroke:black;stroke-width:4.1px;"/>
        <path d="M57.326,4.864C57.148,4.42 57.577,5.997 57.606,6.138C57.785,7.035 57.881,7.978 57.966,8.887C58.28,12.274 58.304,15.684 58.205,19.082C58.178,20.038 58.125,21.001 58.125,21.956C58.125,22.117 58.242,22.86 58.125,23.005C58.101,23.036 57.981,22.628 57.966,22.58C57.886,22.332 57.794,22.093 57.686,21.856" style="fill:none;stroke:black;stroke-width:4.1px;"/>
        <path d="M54.687,7.563C54.945,5.788 56.228,4.506 57.846,3.765C58.982,3.244 60.16,3.059 61.404,2.99C62.3,2.94 63.315,3.099 64.163,3.39C64.868,3.632 65.595,3.998 66.162,4.489C68.794,6.774 66.268,10.431 64.003,11.786C63.17,12.283 62.232,12.669 61.324,13.01C61.175,13.066 60.794,13.253 60.644,13.16" style="fill:none;stroke:black;stroke-width:4.1px;"/>
        <path d="M69,12.011C68.741,12.983 69.214,14.286 69.32,15.259C69.543,17.304 69.783,19.351 69.88,21.406C69.916,22.179 70.007,22.988 69.92,23.755C69.907,23.868 69.992,24.459 69.88,24.529C69.744,24.614 69.68,23.902 69.68,23.83" style="fill:none;stroke:black;stroke-width:4.1px;"/>
        <path d="M70.319,15.609C71.478,13.871 74.263,13.013 76.197,12.635C76.973,12.484 78.595,12.317 78.595,13.385" style="fill:none;stroke:black;stroke-width:4.1px;"/>
        <path d="M82.194,13.26C82.194,13.179 82.194,14.105 82.194,14.309C82.194,15.178 82.234,16.04 82.234,16.908C82.234,19.043 82.268,21.204 82.114,23.33C82.107,23.417 82.118,25.154 82.114,25.154C82.004,25.154 81.777,23.525 81.754,23.38" style="fill:none;stroke:black;stroke-width:4.1px;"/>
        <path d="M83.473,4.964C83.634,4.662 83.34,5.255 83.233,5.389" style="fill:none;stroke:black;stroke-width:4.1px;"/>
        <path d="M88.231,2.44C88.592,2.214 88.643,3.396 88.67,3.59C88.837,4.773 88.883,5.969 88.95,7.163C89.189,11.417 88.753,15.621 88.511,19.857C88.457,20.799 88.311,21.766 88.311,22.705C88.311,22.781 88.236,23.558 88.311,23.605C88.337,23.622 88.351,22.536 88.351,22.43" style="fill:none;stroke:black;stroke-width:4.1px;"/>
        <path d="M94.068,15.359C94.269,16.869 95.606,17.51 97.026,16.883C98.625,16.178 100.096,14.469 100.665,12.835C101.033,11.775 100.853,10.185 99.505,10.037C98.061,9.877 96.686,11.661 95.947,12.585C94.017,14.997 92.425,19.546 94.228,22.405C95.949,25.137 101.138,23.522 102.184,20.906" style="fill:none;stroke:black;stroke-width:4.1px;"/>
        <path d="M112.459,4.614C113.549,6.148 114.28,8.061 115.058,9.762C116.473,12.859 117.774,15.987 119.016,19.157C119.683,20.861 120.396,22.568 120.975,24.305C121.153,24.838 121.38,25.352 121.574,25.879C121.668,26.134 121.894,26.628 121.894,26.628C121.894,26.628 121.322,25.933 121.015,25.604C120.44,24.988 119.63,24.498 118.896,24.105C116.311,22.72 113.607,21.569 110.94,20.356C110.092,19.971 109.032,19.468 108.141,19.282C107.703,19.191 106.822,19.032 106.822,19.032C106.822,19.032 107.541,18.84 107.861,18.657C108.572,18.25 109.242,17.742 109.9,17.258C111.915,15.776 113.939,14.352 116.017,12.96C116.557,12.599 116.528,12.605 117.057,12.26C117.136,12.208 117.8,11.752 117.896,11.686C118.234,11.452 118.193,11.481 118.536,11.236C118.821,11.032 120.354,9.674 120.695,9.887C120.706,9.894 120.509,10.203 120.495,10.236C120.362,10.547 120.195,10.83 120.055,11.136C119.384,12.603 118.601,14.006 117.856,15.434C116.348,18.324 114.868,21.235 113.418,24.155C112.977,25.043 112.639,26.016 112.179,26.878C112.004,27.206 111.867,27.583 111.739,27.903C111.679,28.054 111.499,28.328 111.499,28.328C111.499,28.328 111.637,27.946 111.699,27.753C111.825,27.359 111.891,26.931 111.979,26.528C112.271,25.188 112.381,23.789 112.539,22.43C113.013,18.353 113.562,14.248 113.298,10.136C113.291,10.02 113,8.424 113.138,8.337C113.862,7.885 114.177,6.387 113.378,5.639C113.174,5.447 112.86,4.764 112.539,4.864C111.766,5.106 112.019,7.136 112.019,7.713C112.019,10.268 112.829,12.998 112.419,15.559C112.078,17.686 112.339,19.972 112.339,22.131C112.339,22.967 112.179,23.825 112.179,24.654C112.179,24.913 111.921,25.429 112.179,25.429C112.337,25.429 112.664,23.791 112.699,23.63C113.013,22.158 113.315,20.718 113.498,19.232C113.542,18.876 113.535,17.735 113.858,17.533C114.076,17.397 114.418,17.843 114.578,17.983C115.284,18.6 115.786,19.417 116.417,20.107C116.833,20.562 117.479,20.796 117.976,21.106C118.25,21.278 118.776,21.656 118.776,21.656C118.776,21.656 118.364,21.319 118.176,21.131C118.075,21.03 118.009,20.925 117.896,20.831" style="fill:none;stroke:black;stroke-width:4.1px;"/>
    </g>
</svg>
